<?xml version="1.0" standalone="no"?>
<!DOCTYPE svg PUBLIC "-//W3C//DTD SVG 20010904//EN"
 "http://www.w3.org/TR/2001/REC-SVG-20010904/DTD/svg10.dtd">
<svg version="1.0" xmlns="http://www.w3.org/2000/svg"
 width="260.000000pt" height="260.000000pt" viewBox="0 0 260.000000 260.000000"
 preserveAspectRatio="xMidYMid meet">
<metadata>
Created by potrace 1.11, written by Peter Selinger 2001-2013
</metadata>
<g transform="translate(0.000000,260.000000) scale(0.100000,-0.100000)"
fill="#000000" stroke="none">
<path d="M0 1300 l0 -1300 1300 0 1300 0 0 1300 0 1300 -1300 0 -1300 0 0
-1300z m1496 523 c-3 -10 -66 -223 -141 -473 -182 -608 -176 -590 -183 -591
-28 -6 -73 -6 -77 1 -2 4 2 27 10 51 7 24 75 251 150 504 75 253 141 475 146
493 10 30 14 32 55 32 39 0 45 -3 40 -17z m-506 -255 c0 -45 -4 -55 -23 -64
-50 -23 -427 -216 -490 -250 l-69 -36 289 -148 288 -148 3 -51 c2 -28 2 -51 0
-51 -2 0 -159 81 -348 179 l-345 180 -3 38 -3 39 348 182 c191 100 349 182
351 182 1 0 2 -24 2 -52z m1238 -265 c81 -43 82 -45 82 -82 0 -21 -6 -43 -12
-48 -7 -6 -165 -88 -350 -182 l-338 -172 0 50 0 51 295 147 c162 82 295 150
295 154 0 3 -133 70 -295 150 l-295 144 0 53 0 52 268 -136 c147 -75 304 -157
350 -181z"/>
</g>
</svg>
